<?xml version="1.0" encoding="UTF-8" standalone="no"?>
<svg
   xmlns:dc="http://purl.org/dc/elements/1.1/"
   xmlns:cc="http://creativecommons.org/ns#"
   xmlns:rdf="http://www.w3.org/1999/02/22-rdf-syntax-ns#"
   xmlns:svg="http://www.w3.org/2000/svg"
   xmlns="http://www.w3.org/2000/svg"
   xmlns:sodipodi="http://sodipodi.sourceforge.net/DTD/sodipodi-0.dtd"
   xmlns:inkscape="http://www.inkscape.org/namespaces/inkscape"
   width="50mm"
   height="33.199829mm"
   viewBox="0 0 50 33.199829"
   version="1.1"
   id="svg14"
   inkscape:version="1.0.2 (e86c870879, 2021-01-15, custom)"
   sodipodi:docname="CloudOutline.svg">
  <defs
     id="defs8" />
  <sodipodi:namedview
     id="base"
     pagecolor="#ffffff"
     bordercolor="#666666"
     borderopacity="1.0"
     inkscape:pageopacity="0.0"
     inkscape:pageshadow="2"
     inkscape:zoom="2.8"
     inkscape:cx="74.636928"
     inkscape:cy="67.565854"
     inkscape:document-units="mm"
     inkscape:current-layer="layer1"
     inkscape:document-rotation="0"
     showgrid="false"
     inkscape:window-width="1662"
     inkscape:window-height="1041"
     inkscape:window-x="2128"
     inkscape:window-y="0"
     inkscape:window-maximized="0"
     fit-margin-top="0"
     fit-margin-left="0"
     fit-margin-right="0"
     fit-margin-bottom="0" />
  <metadata
     id="metadata11">
    <rdf:RDF>
      <cc:Work
         rdf:about="">
        <dc:format>image/svg+xml</dc:format>
        <dc:type
           rdf:resource="http://purl.org/dc/dcmitype/StillImage" />
        <dc:title></dc:title>
      </cc:Work>
    </rdf:RDF>
  </metadata>
  <g
     inkscape:label="レイヤー 1"
     inkscape:groupmode="layer"
     id="layer1"
     transform="translate(0,-16.8)">
    <path
       id="path16"
       style="fill:none;fill-opacity:1;stroke:#000000;stroke-width:2;stroke-linecap:round;stroke-linejoin:round;stroke-miterlimit:4;stroke-dasharray:none;stroke-opacity:1"
       d="m 29.741669,17.800036 a 11.999988,11.999988 0 0 0 -9.54583,4.805652 7.1999929,7.1999929 0 0 0 -4.443016,-1.534411 7.1999929,7.1999929 0 0 0 -7.1998038,7.199795 7.1999929,7.1999929 0 0 0 0.2053843,1.707063 A 9.5999905,9.5999905 0 0 0 1,39.399933 9.5999905,9.5999905 0 0 0 10.599901,48.99983 H 39.400104 A 9.5999905,9.5999905 0 0 0 49,39.399933 a 9.5999905,9.5999905 0 0 0 -7.204264,-9.296297 11.999988,11.999988 0 0 0 0.0046,-0.303599 11.999988,11.999988 0 0 0 -12,-12.000001 11.999988,11.999988 0 0 0 -0.05858,0 z" />
  </g>
</svg>
