<?xml version="1.0" encoding="UTF-8" standalone="no"?>
<!-- Created with Inkscape (http://www.inkscape.org/) -->

<svg
   width="60mm"
   height="60mm"
   viewBox="0 0 61.593036 60.000034"
   version="1.1"
   id="svg6105"
   inkscape:version="1.1.1 (c3084ef, 2021-09-22)"
   sodipodi:docname="Giteki_Mark.svg"
   xmlns:inkscape="http://www.inkscape.org/namespaces/inkscape"
   xmlns:sodipodi="http://sodipodi.sourceforge.net/DTD/sodipodi-0.dtd"
   xmlns="http://www.w3.org/2000/svg"
   xmlns:svg="http://www.w3.org/2000/svg">
  <sodipodi:namedview
     id="namedview6107"
     pagecolor="#505050"
     bordercolor="#eeeeee"
     borderopacity="1"
     inkscape:pageshadow="0"
     inkscape:pageopacity="0"
     inkscape:pagecheckerboard="0"
     inkscape:document-units="mm"
     showgrid="false"
     inkscape:zoom="2"
     inkscape:cx="214.75"
     inkscape:cy="160.25"
     inkscape:window-width="1920"
     inkscape:window-height="1027"
     inkscape:window-x="1440"
     inkscape:window-y="25"
     inkscape:window-maximized="1"
     inkscape:current-layer="layer1"
     showguides="true"
     inkscape:guide-bbox="true"
     inkscape:snap-bbox="true"
     inkscape:bbox-paths="true"
     inkscape:bbox-nodes="true"
     inkscape:snap-bbox-edge-midpoints="true"
     inkscape:snap-bbox-midpoints="true"
     inkscape:object-paths="true"
     inkscape:snap-intersection-paths="true"
     inkscape:snap-smooth-nodes="true"
     inkscape:snap-midpoints="true"
     inkscape:snap-object-midpoints="true"
     inkscape:snap-center="true"
     inkscape:snap-text-baseline="true"
     fit-margin-left="0"
     fit-margin-top="0"
     fit-margin-right="0"
     fit-margin-bottom="0"
     lock-margins="true"
     viewbox-width="60">
    <inkscape:grid
       type="xygrid"
       id="grid6205"
       originx="-1e-07"
       originy="0" />
    <sodipodi:guide
       position="30,43.963448"
       orientation="-1,0"
       id="guide6235"
       inkscape:label=""
       inkscape:locked="false"
       inkscape:color="rgb(0,0,255)" />
    <sodipodi:guide
       position="-4.4172234e-08,29.999982"
       orientation="0,1"
       id="guide6317"
       inkscape:label=""
       inkscape:locked="true"
       inkscape:color="rgb(0,0,255)" />
    <sodipodi:guide
       position="-4.4172234e-08,39.999987"
       orientation="0,1"
       id="guide6319"
       inkscape:label=""
       inkscape:locked="true"
       inkscape:color="rgb(0,0,255)" />
    <sodipodi:guide
       position="60,59.999965"
       orientation="-1,0"
       id="guide6464"
       inkscape:label=""
       inkscape:locked="false"
       inkscape:color="rgb(0,0,255)" />
    <sodipodi:guide
       position="-4.4172234e-08,19.999977"
       orientation="0,1"
       id="guide7903"
       inkscape:label=""
       inkscape:locked="true"
       inkscape:color="rgb(0,0,255)" />
    <sodipodi:guide
       position="0,23.000013"
       orientation="0,1"
       id="guide2777"
       inkscape:label=""
       inkscape:locked="true"
       inkscape:color="rgb(0,0,255)" />
    <sodipodi:guide
       position="0,19.000011"
       orientation="0,1"
       id="guide3378"
       inkscape:label=""
       inkscape:locked="true"
       inkscape:color="rgb(0,0,255)" />
  </sodipodi:namedview>
  <defs
     id="defs6102" />
  <g
     inkscape:label="Layer 1"
     inkscape:groupmode="layer"
     id="layer1">
    <circle
       style="fill:#f9f9f9;stroke:none;stroke-width:0.102655;opacity:0"
       id="path863"
       cx="30.796518"
       cy="30.000017"
       r="30.796518" />
    <path
       id="path863-5"
       style="opacity:1;fill:#000000;stroke:none;stroke-width:0.377953"
       d="m 113.38672,0 a 113.38583,113.38583 0 0 0 -15.535158,1.1113281 113.38583,113.38583 0 0 0 -0.826171,0.09375 113.38583,113.38583 0 0 0 -14.623047,3.1796875 113.38583,113.38583 0 0 0 -1.398438,0.375 113.38583,113.38583 0 0 0 -13.638672,5.0839844 113.38583,113.38583 0 0 0 -1.675781,0.730469 113.38583,113.38583 0 0 0 -12.566406,6.859375 113.38583,113.38583 0 0 0 -1.705078,1.070312 113.38583,113.38583 0 0 0 -11.382813,8.517578 113.38583,113.38583 0 0 0 -1.576172,1.357422 113.38583,113.38583 0 0 0 -10.037109,10.03125 113.38583,113.38583 0 0 0 -1.349609,1.566406 113.38583,113.38583 0 0 0 -8.546875,11.408204 113.38583,113.38583 0 0 0 -1.03125,1.642578 113.38583,113.38583 0 0 0 -6.91211,12.644531 A 113.38583,113.38583 0 0 0 9.9082031,67.216797 113.38583,113.38583 0 0 0 4.7617188,80.996094 113.38583,113.38583 0 0 0 4.4375,82.201172 113.38583,113.38583 0 0 0 1.2070312,97.013672 113.38583,113.38583 0 0 0 0,113.38672 a 113.38583,113.38583 0 0 0 1.109375,15.51562 113.38583,113.38583 0 0 0 0.097656,0.86524 113.38583,113.38583 0 0 0 3.1777344,14.60156 113.38583,113.38583 0 0 0 0.3808594,1.42383 113.38583,113.38583 0 0 0 5.0742188,13.60742 113.38583,113.38583 0 0 0 0.7500004,1.71484 113.38583,113.38583 0 0 0 6.833984,12.51563 113.38583,113.38583 0 0 0 1.115234,1.77539 113.38583,113.38583 0 0 0 8.464844,11.31055 113.38583,113.38583 0 0 0 1.431641,1.66211 113.38583,113.38583 0 0 0 9.957031,9.95703 113.38583,113.38583 0 0 0 1.666016,1.43359 113.38583,113.38583 0 0 0 11.316406,8.4707 113.38583,113.38583 0 0 0 1.751953,1.09961 113.38583,113.38583 0 0 0 12.537109,6.84766 113.38583,113.38583 0 0 0 1.697266,0.74023 113.38583,113.38583 0 0 0 13.609375,5.07618 113.38583,113.38583 0 0 0 1.449219,0.38867 113.38583,113.38583 0 0 0 14.58789,3.17187 113.38583,113.38583 0 0 0 0.857422,0.0977 113.38583,113.38583 0 0 0 15.521486,1.10937 113.38583,113.38583 0 0 0 15.51562,-1.10937 113.38583,113.38583 0 0 0 0.86328,-0.0977 113.38583,113.38583 0 0 0 14.62305,-3.18164 113.38583,113.38583 0 0 0 1.39453,-0.375 113.38583,113.38583 0 0 0 13.61719,-5.07617 113.38583,113.38583 0 0 0 1.71484,-0.75 113.38583,113.38583 0 0 0 12.51563,-6.83398 113.38583,113.38583 0 0 0 1.77539,-1.11524 113.38583,113.38583 0 0 0 11.32227,-8.47656 113.38583,113.38583 0 0 0 1.63671,-1.4082 113.38583,113.38583 0 0 0 9.98243,-9.98243 113.38583,113.38583 0 0 0 1.4082,-1.63671 113.38583,113.38583 0 0 0 8.47656,-11.32227 113.38583,113.38583 0 0 0 1.11524,-1.77539 113.38583,113.38583 0 0 0 6.83398,-12.51563 113.38583,113.38583 0 0 0 0.75,-1.71484 113.38583,113.38583 0 0 0 1.85938,-4.4375 h -16.36719 a 98.267715,98.267715 0 0 1 -89.03711,56.69141 98.267715,98.267715 0 0 1 -98.269532,-98.26758 98.267715,98.267715 0 0 1 0.380859,-4.84375 L 105.82617,80.316406 v 8.615235 8.615234 15.837895 l 15.11914,-4.72266 13.36719,-4.17773 27.85352,-8.70313 15.80859,-4.941406 28.48828,-8.902344 14.42188,-4.505859 0.0215,-0.0078 a 113.38583,113.38583 0 0 0 -5.76172,-14.039062 l -0.0234,0.0078 A 113.38583,113.38583 0 0 0 129.20703,1.1191406 113.38583,113.38583 0 0 0 129.04102,1.0957031 113.38583,113.38583 0 0 0 113.38672,0 Z m 0,15.117188 a 98.267715,98.267715 0 0 1 87.11719,52.84375 l -79.5586,24.861328 V 78.455078 75.591797 59.751953 L 105.82617,64.476562 67.689453,76.394531 17.771484,91.992188 a 98.267715,98.267715 0 0 1 95.615236,-76.875 z M 52.914062,120.94531 V 139.8418 H 173.85742 v -18.89649 z m 0,30.23633 v 18.89648 h 49.132818 v 30.23633 h 22.67773 v -30.23633 h 49.13281 v -18.89648 z"
       transform="matrix(0.27160818,0,0,0.27160818,0,-0.796501)" />
  </g>
</svg>
