<?xml version="1.0" encoding="UTF-8" standalone="no"?>
<!-- Created with Inkscape (http://www.inkscape.org/) -->

<svg
   width="58.448166mm"
   height="59.999966mm"
   viewBox="0 0 58.448166 59.999966"
   version="1.1"
   id="svg6105"
   inkscape:version="1.1.1 (c3084ef, 2021-09-22)"
   sodipodi:docname="Giteki_Mark.svg"
   xmlns:inkscape="http://www.inkscape.org/namespaces/inkscape"
   xmlns:sodipodi="http://sodipodi.sourceforge.net/DTD/sodipodi-0.dtd"
   xmlns="http://www.w3.org/2000/svg"
   xmlns:svg="http://www.w3.org/2000/svg">
  <sodipodi:namedview
     id="namedview6107"
     pagecolor="#505050"
     bordercolor="#eeeeee"
     borderopacity="1"
     inkscape:pageshadow="0"
     inkscape:pageopacity="0"
     inkscape:pagecheckerboard="0"
     inkscape:document-units="mm"
     showgrid="false"
     inkscape:zoom="1"
     inkscape:cx="165.5"
     inkscape:cy="180.5"
     inkscape:window-width="1312"
     inkscape:window-height="847"
     inkscape:window-x="1700"
     inkscape:window-y="88"
     inkscape:window-maximized="0"
     inkscape:current-layer="layer1"
     showguides="true"
     inkscape:guide-bbox="true"
     inkscape:snap-bbox="true"
     inkscape:bbox-paths="true"
     inkscape:bbox-nodes="true"
     inkscape:snap-bbox-edge-midpoints="true"
     inkscape:snap-bbox-midpoints="true"
     inkscape:object-paths="true"
     inkscape:snap-intersection-paths="true"
     inkscape:snap-smooth-nodes="true"
     inkscape:snap-midpoints="true"
     inkscape:snap-object-midpoints="true"
     inkscape:snap-center="true"
     inkscape:snap-text-baseline="true"
     fit-margin-left="0"
     fit-margin-top="0"
     fit-margin-right="0"
     fit-margin-bottom="0"
     lock-margins="true">
    <inkscape:grid
       type="xygrid"
       id="grid6205"
       originx="-1e-07"
       originy="0" />
    <sodipodi:guide
       position="30,43.963448"
       orientation="-1,0"
       id="guide6235"
       inkscape:label=""
       inkscape:locked="false"
       inkscape:color="rgb(0,0,255)" />
    <sodipodi:guide
       position="-4.3029767e-08,29.999965"
       orientation="0,1"
       id="guide6317"
       inkscape:label=""
       inkscape:locked="false"
       inkscape:color="rgb(0,0,255)" />
    <sodipodi:guide
       position="-4.3029767e-08,39.999965"
       orientation="0,1"
       id="guide6319"
       inkscape:label=""
       inkscape:locked="false"
       inkscape:color="rgb(0,0,255)" />
    <sodipodi:guide
       position="60,59.999965"
       orientation="-1,0"
       id="guide6464"
       inkscape:label=""
       inkscape:locked="false"
       inkscape:color="rgb(0,0,255)" />
    <sodipodi:guide
       position="-4.3029767e-08,19.999966"
       orientation="0,1"
       id="guide7903"
       inkscape:label=""
       inkscape:locked="false"
       inkscape:color="rgb(0,0,255)" />
  </sodipodi:namedview>
  <defs
     id="defs6102" />
  <g
     inkscape:label="Layer 1"
     inkscape:groupmode="layer"
     id="layer1">
    <path
       id="rect6229"
       style="fill:#000000;stroke-width:0.49869"
       d="M 113.38672,0 A 113.38583,113.38583 0 0 0 97.900391,1.1074219 113.38583,113.38583 0 0 0 97.005859,1.2089844 113.38583,113.38583 0 0 0 82.4375,4.3769531 a 113.38583,113.38583 0 0 0 -1.457031,0.390625 113.38583,113.38583 0 0 0 -13.595703,5.0683594 113.38583,113.38583 0 0 0 -1.708985,0.7460935 113.38583,113.38583 0 0 0 -12.529297,6.837891 113.38583,113.38583 0 0 0 -1.751953,1.101562 113.38583,113.38583 0 0 0 -11.328125,8.476563 113.38583,113.38583 0 0 0 -1.634765,1.40625 113.38583,113.38583 0 0 0 -10.001953,9.996094 113.38583,113.38583 0 0 0 -1.365235,1.58789 113.38583,113.38583 0 0 0 -8.535156,11.392578 113.38583,113.38583 0 0 0 -1.041016,1.65625 A 113.38583,113.38583 0 0 0 10.585938,65.666016 113.38583,113.38583 0 0 0 9.8984375,67.240234 113.38583,113.38583 0 0 0 4.7675781,80.972656 113.38583,113.38583 0 0 0 4.421875,82.263672 113.38583,113.38583 0 0 0 1.2070312,97 113.38583,113.38583 0 0 0 0,113.38672 a 113.38583,113.38583 0 0 0 1.109375,15.51562 113.38583,113.38583 0 0 0 0.097656,0.86524 113.38583,113.38583 0 0 0 3.1777344,14.60742 113.38583,113.38583 0 0 0 0.3789063,1.41406 113.38583,113.38583 0 0 0 5.0761719,13.61133 113.38583,113.38583 0 0 0 0.7500004,1.71484 113.38583,113.38583 0 0 0 6.841797,12.53125 113.38583,113.38583 0 0 0 1.099609,1.75 113.38583,113.38583 0 0 0 8.480469,11.32813 113.38583,113.38583 0 0 0 1.419922,1.65039 113.38583,113.38583 0 0 0 9.960937,9.96094 113.38583,113.38583 0 0 0 1.666016,1.43359 113.38583,113.38583 0 0 0 11.322265,8.47266 113.38583,113.38583 0 0 0 1.734375,1.09179 113.38583,113.38583 0 0 0 12.552735,6.85547 113.38583,113.38583 0 0 0 1.68164,0.73243 113.38583,113.38583 0 0 0 13.621094,5.08203 113.38583,113.38583 0 0 0 1.449219,0.38867 113.38583,113.38583 0 0 0 14.58789,3.17187 113.38583,113.38583 0 0 0 0.857422,0.0977 113.38583,113.38583 0 0 0 15.521486,1.10937 113.38583,113.38583 0 0 0 15.51562,-1.10937 113.38583,113.38583 0 0 0 0.86328,-0.0977 113.38583,113.38583 0 0 0 14.62305,-3.18164 113.38583,113.38583 0 0 0 1.39453,-0.375 113.38583,113.38583 0 0 0 13.63086,-5.08203 113.38583,113.38583 0 0 0 1.69922,-0.74219 113.38583,113.38583 0 0 0 12.5293,-6.84179 113.38583,113.38583 0 0 0 1.75976,-1.10547 113.38583,113.38583 0 0 0 11.32618,-8.48047 113.38583,113.38583 0 0 0 1.63671,-1.4082 113.38583,113.38583 0 0 0 9.98633,-9.98633 113.38583,113.38583 0 0 0 1.39844,-1.625 113.38583,113.38583 0 0 0 8.49023,-11.33985 113.38583,113.38583 0 0 0 1.09961,-1.75 113.38583,113.38583 0 0 0 6.8418,-12.53125 113.38583,113.38583 0 0 0 0.75,-1.71484 113.38583,113.38583 0 0 0 1.875,-4.43945 h -16.41016 a 98.26771,98.26771 0 0 1 -89.00976,56.69336 98.26771,98.26771 0 0 1 -98.269532,-98.26758 98.26771,98.26771 0 0 1 0.380859,-4.84375 L 105.82617,80.314453 v 12.013672 h 0.004 v 21.056645 l 15.11523,-4.72266 74.25391,-23.205079 11.20312,-3.501953 14.48243,-4.52539 0.0156,-0.0039 0.006,-0.002 a 113.38583,113.38583 0 0 0 -5.76172,-14.039062 l -0.0234,0.0078 A 113.38583,113.38583 0 0 0 129.20703,1.1191406 113.38583,113.38583 0 0 0 129.04102,1.0957031 113.38583,113.38583 0 0 0 113.38672,0 Z m 0,15.119141 a 98.26771,98.26771 0 0 1 87.06836,52.855468 L 120.94531,92.822266 V 75.589844 59.75 l -4.51172,1.410156 -10.60742,3.314453 v 0.002 L 17.771484,91.994141 a 98.26771,98.26771 0 0 1 95.615236,-76.875 z"
       transform="scale(0.26458333)" />
    <path
       id="rect7901"
       style="opacity:1;fill:#000000;stroke-width:0.377953"
       d="M 52.914062,120.94531 V 139.8418 H 173.85742 v -18.89649 z m 0,30.23633 v 18.89648 h 49.132818 v 30.23633 h 22.67773 v -30.23633 h 49.13281 v -18.89648 h -49.13281 -22.67773 z"
       transform="scale(0.26458333)" />
  </g>
</svg>
