<?xml version="1.0" encoding="UTF-8" standalone="no"?>
<svg
   xmlns:dc="http://purl.org/dc/elements/1.1/"
   xmlns:cc="http://creativecommons.org/ns#"
   xmlns:rdf="http://www.w3.org/1999/02/22-rdf-syntax-ns#"
   xmlns:svg="http://www.w3.org/2000/svg"
   xmlns="http://www.w3.org/2000/svg"
   xmlns:sodipodi="http://sodipodi.sourceforge.net/DTD/sodipodi-0.dtd"
   xmlns:inkscape="http://www.inkscape.org/namespaces/inkscape"
   width="100mm"
   height="100mm"
   viewBox="0 0 100 100"
   version="1.1"
   id="svg8"
   inkscape:version="1.0.2 (e86c870879, 2021-01-15, custom)"
   sodipodi:docname="Cloud.svg">
  <defs
     id="defs2" />
  <sodipodi:namedview
     id="base"
     pagecolor="#ffffff"
     bordercolor="#666666"
     borderopacity="1.0"
     inkscape:pageopacity="0.0"
     inkscape:pageshadow="2"
     inkscape:zoom="1.4"
     inkscape:cx="245.94532"
     inkscape:cy="221.67565"
     inkscape:document-units="mm"
     inkscape:current-layer="layer1"
     inkscape:document-rotation="0"
     showgrid="false"
     inkscape:window-width="1662"
     inkscape:window-height="1041"
     inkscape:window-x="2050"
     inkscape:window-y="0"
     inkscape:window-maximized="0" />
  <metadata
     id="metadata5">
    <rdf:RDF>
      <cc:Work
         rdf:about="">
        <dc:format>image/svg+xml</dc:format>
        <dc:type
           rdf:resource="http://purl.org/dc/dcmitype/StillImage" />
        <dc:title></dc:title>
      </cc:Work>
    </rdf:RDF>
  </metadata>
  <g
     inkscape:label="レイヤー 1"
     inkscape:groupmode="layer"
     id="layer1">
    <path
       id="path10"
       style="fill:none;stroke:#000000;stroke-width:7.55906;stroke-linecap:round;stroke-linejoin:round;stroke-miterlimit:4;stroke-dasharray:none;stroke-opacity:1"
       d="M 159.8457 3.7792969 A 27.779501 27.779486 0 0 0 132.34375 29.525391 A 18.519667 18.519657 0 0 0 125.83398 28.34375 A 18.519667 18.519657 0 0 0 111.18164 35.533203 A 55.559002 55.558972 0 0 0 77.980469 24.519531 A 55.559002 55.558972 0 0 0 22.419922 80.080078 A 55.559002 55.558972 0 0 0 34.234375 114.33203 A 37.039335 37.039315 0 0 0 3.7792969 150.7793 A 37.039335 37.039315 0 0 0 27.234375 185.23633 A 55.559002 55.558972 0 0 0 3.7792969 230.57812 A 55.559002 55.558972 0 0 0 46.728516 284.6875 A 37.039335 37.039315 0 0 0 42.449219 301.96875 A 37.039335 37.039315 0 0 0 79.488281 339.00781 A 37.039335 37.039315 0 0 0 93.767578 336.14453 A 18.519667 18.519657 0 0 0 111.09961 348.14258 A 18.519667 18.519657 0 0 0 127.08594 338.97266 A 55.559002 55.558972 0 0 0 178.7793 374.17383 A 55.559002 55.558972 0 0 0 230.38281 339.20117 A 140.25891 150.75883 0 0 0 231.17188 338.99023 A 37.039335 37.039315 0 0 0 263.47852 357.91992 A 37.039335 37.039315 0 0 0 299.4668 329.63477 A 55.559002 55.558972 0 0 0 318.61328 333.03906 A 55.559002 55.558972 0 0 0 374.17383 277.47852 A 55.559002 55.558972 0 0 0 352.93164 233.78711 A 37.039335 37.039315 0 0 0 374.17383 200.28516 A 37.039335 37.039315 0 0 0 356.0293 168.42773 A 27.779501 27.779486 0 0 0 374.17383 142.37305 A 27.779501 27.779486 0 0 0 357.71094 117.00391 A 55.559002 55.558972 0 0 0 363.64062 92.027344 A 55.559002 55.558972 0 0 0 308.08008 36.46875 A 55.559002 55.558972 0 0 0 291.89648 38.878906 A 27.779501 27.779486 0 0 0 264.13672 12.132812 A 27.779501 27.779486 0 0 0 240.70117 24.996094 A 37.039335 37.039315 0 0 0 207.21289 3.7792969 A 37.039335 37.039315 0 0 0 181.61328 14.050781 A 27.779501 27.779486 0 0 0 160.04688 3.7792969 A 27.779501 27.779486 0 0 0 159.8457 3.7792969 z "
       transform="scale(0.26458333)" />
  </g>
</svg>
