<?xml version="1.0" encoding="UTF-8" standalone="no"?>
<svg
   xmlns:dc="http://purl.org/dc/elements/1.1/"
   xmlns:cc="http://creativecommons.org/ns#"
   xmlns:rdf="http://www.w3.org/1999/02/22-rdf-syntax-ns#"
   xmlns:svg="http://www.w3.org/2000/svg"
   xmlns="http://www.w3.org/2000/svg"
   xmlns:sodipodi="http://sodipodi.sourceforge.net/DTD/sodipodi-0.dtd"
   xmlns:inkscape="http://www.inkscape.org/namespaces/inkscape"
   width="210mm"
   height="180mm"
   viewBox="0 0 210 180"
   version="1.1"
   id="svg8"
   inkscape:version="1.0.2 (e86c870879, 2021-01-15, custom)"
   sodipodi:docname="Obi_Steps.svg"
   inkscape:export-filename="C:\Users\gahog\Documents\minamino\github\jekyll-theme-minamino\assets\img\Obi_Step3.png"
   inkscape:export-xdpi="96"
   inkscape:export-ydpi="96">
  <defs
     id="defs2">
    <marker
       style="overflow:visible"
       id="marker2212"
       refX="0"
       refY="0"
       orient="auto"
       inkscape:stockid="TriangleOutM"
       inkscape:isstock="true">
      <path
         transform="scale(0.4)"
         style="fill:#b2b2b2;fill-opacity:1;fill-rule:evenodd;stroke:#b2b2b2;stroke-width:1pt;stroke-opacity:1"
         d="M 5.77,0 -2.88,5 V -5 Z"
         id="path2210" />
    </marker>
    <marker
       style="overflow:visible"
       id="TriangleOutM"
       refX="0.0"
       refY="0.0"
       orient="auto"
       inkscape:stockid="TriangleOutM"
       inkscape:isstock="true">
      <path
         transform="scale(0.4)"
         style="fill-rule:evenodd;stroke:#b2b2b2;stroke-width:1pt;stroke-opacity:1;fill:#ffffff;fill-opacity:1"
         d="M 5.77,0.0 L -2.88,5.0 L -2.88,-5.0 L 5.77,0.0 z "
         id="path1069" />
    </marker>
    <marker
       style="overflow:visible;"
       id="marker1360"
       refX="0.0"
       refY="0.0"
       orient="auto"
       inkscape:stockid="Arrow2Mend"
       inkscape:isstock="true">
      <path
         transform="scale(0.6) rotate(180) translate(0,0)"
         d="M 8.7185878,4.0337352 L -2.2072895,0.016013256 L 8.7185884,-4.0017078 C 6.9730900,-1.6296469 6.9831476,1.6157441 8.7185878,4.0337352 z "
         style="fill-rule:evenodd;stroke-width:0.625;stroke-linejoin:round;stroke:#b2b2b2;stroke-opacity:1;fill:#b2b2b2;fill-opacity:1"
         id="path1358" />
    </marker>
    <marker
       style="overflow:visible;"
       id="Arrow2Mend"
       refX="0.0"
       refY="0.0"
       orient="auto"
       inkscape:stockid="Arrow2Mend"
       inkscape:isstock="true">
      <path
         transform="scale(0.6) rotate(180) translate(0,0)"
         d="M 8.7185878,4.0337352 L -2.2072895,0.016013256 L 8.7185884,-4.0017078 C 6.9730900,-1.6296469 6.9831476,1.6157441 8.7185878,4.0337352 z "
         style="fill-rule:evenodd;stroke-width:0.625;stroke-linejoin:round;stroke:#9b9bca;stroke-opacity:1;fill:#9b9bca;fill-opacity:1"
         id="path951" />
    </marker>
    <marker
       style="overflow:visible;"
       id="Arrow2Lend"
       refX="0.0"
       refY="0.0"
       orient="auto"
       inkscape:stockid="Arrow2Lend"
       inkscape:isstock="true">
      <path
         transform="scale(1.1) rotate(180) translate(1,0)"
         d="M 8.7185878,4.0337352 L -2.2072895,0.016013256 L 8.7185884,-4.0017078 C 6.9730900,-1.6296469 6.9831476,1.6157441 8.7185878,4.0337352 z "
         style="fill-rule:evenodd;stroke-width:0.625;stroke-linejoin:round;stroke:#000000;stroke-opacity:1;fill:#000000;fill-opacity:1"
         id="path945" />
    </marker>
    <marker
       style="overflow:visible;"
       id="Arrow1Mend"
       refX="0.0"
       refY="0.0"
       orient="auto"
       inkscape:stockid="Arrow1Mend"
       inkscape:isstock="true">
      <path
         transform="scale(0.4) rotate(180) translate(10,0)"
         style="fill-rule:evenodd;stroke:#000000;stroke-width:1pt;stroke-opacity:1;fill:#000000;fill-opacity:1"
         d="M 0.0,0.0 L 5.0,-5.0 L -12.5,0.0 L 5.0,5.0 L 0.0,0.0 z "
         id="path933" />
    </marker>
    <marker
       style="overflow:visible;"
       id="Arrow1Lend"
       refX="0.0"
       refY="0.0"
       orient="auto"
       inkscape:stockid="Arrow1Lend"
       inkscape:isstock="true">
      <path
         transform="scale(0.8) rotate(180) translate(12.5,0)"
         style="fill-rule:evenodd;stroke:#000000;stroke-width:1pt;stroke-opacity:1;fill:#000000;fill-opacity:1"
         d="M 0.0,0.0 L 5.0,-5.0 L -12.5,0.0 L 5.0,5.0 L 0.0,0.0 z "
         id="path927" />
    </marker>
    <marker
       style="overflow:visible"
       id="TriangleOutM-9"
       refX="0"
       refY="0"
       orient="auto"
       inkscape:stockid="TriangleOutM"
       inkscape:isstock="true"
       inkscape:collect="always">
      <path
         transform="scale(0.4)"
         style="fill:#4d4d4d;fill-opacity:1;fill-rule:evenodd;stroke:#4d4d4d;stroke-width:1pt;stroke-opacity:1"
         d="M 5.77,0 -2.88,5 V -5 Z"
         id="path1069-3" />
    </marker>
    <filter
       inkscape:collect="always"
       style="color-interpolation-filters:sRGB"
       id="filter1695"
       x="-9.7143257e-07"
       width="1.0000019"
       y="-1.5692203e-06"
       height="1.0000031">
      <feGaussianBlur
         inkscape:collect="always"
         stdDeviation="3.2778616e-05"
         id="feGaussianBlur1697" />
    </filter>
    <marker
       style="overflow:visible"
       id="TriangleOutM-91"
       refX="0"
       refY="0"
       orient="auto"
       inkscape:stockid="TriangleOutM"
       inkscape:isstock="true">
      <path
         transform="scale(0.4)"
         style="fill:#4d4d4d;fill-opacity:1;fill-rule:evenodd;stroke:#4d4d4d;stroke-width:1pt;stroke-opacity:1"
         d="M 5.77,0 -2.88,5 V -5 Z"
         id="path1069-0" />
    </marker>
    <marker
       style="overflow:visible"
       id="TriangleOutM-91-5"
       refX="0"
       refY="0"
       orient="auto"
       inkscape:stockid="TriangleOutM"
       inkscape:isstock="true">
      <path
         transform="scale(0.4)"
         style="fill:#4d4d4d;fill-opacity:1;fill-rule:evenodd;stroke:#4d4d4d;stroke-width:1pt;stroke-opacity:1"
         d="M 5.77,0 -2.88,5 V -5 Z"
         id="path1069-0-8" />
    </marker>
    <marker
       style="overflow:visible"
       id="marker2212-2"
       refX="0"
       refY="0"
       orient="auto"
       inkscape:stockid="TriangleOutM"
       inkscape:isstock="true">
      <path
         transform="scale(0.4)"
         style="fill:#4d4d4d;fill-opacity:1;fill-rule:evenodd;stroke:#4d4d4d;stroke-width:1pt;stroke-opacity:1"
         d="M 5.77,0 -2.88,5 V -5 Z"
         id="path2210-4" />
    </marker>
  </defs>
  <sodipodi:namedview
     id="base"
     pagecolor="#ffffff"
     bordercolor="#666666"
     borderopacity="1.0"
     inkscape:pageopacity="0.0"
     inkscape:pageshadow="2"
     inkscape:zoom="0.70000001"
     inkscape:cx="712.21409"
     inkscape:cy="406.43325"
     inkscape:document-units="mm"
     inkscape:current-layer="g854"
     inkscape:document-rotation="0"
     showgrid="false"
     inkscape:snap-bbox="true"
     inkscape:bbox-paths="true"
     inkscape:window-width="1920"
     inkscape:window-height="1027"
     inkscape:window-x="1912"
     inkscape:window-y="-8"
     inkscape:window-maximized="1"
     inkscape:bbox-nodes="true"
     inkscape:snap-bbox-edge-midpoints="true"
     inkscape:snap-bbox-midpoints="true" />
  <metadata
     id="metadata5">
    <rdf:RDF>
      <cc:Work
         rdf:about="">
        <dc:format>image/svg+xml</dc:format>
        <dc:type
           rdf:resource="http://purl.org/dc/dcmitype/StillImage" />
        <dc:title />
      </cc:Work>
    </rdf:RDF>
  </metadata>
  <g
     inkscape:groupmode="layer"
     id="layer5"
     inkscape:label="青、終・ループ(2,3,4)"
     style="display:inline">
    <path
       id="rect907-5-7"
       style="fill:#8c8cd9;fill-opacity:1;stroke:#000000;stroke-width:1;stroke-linecap:round;stroke-linejoin:round;stroke-miterlimit:4;stroke-dasharray:none"
       d="m 110.51418,78.590043 11.70006,6.755143 v 26.489844 l -11.70006,6.75515 z"
       inkscape:export-xdpi="96"
       inkscape:export-ydpi="96" />
  </g>
  <g
     inkscape:groupmode="layer"
     id="layer12"
     inkscape:label="青、途中・上へ(1)"
     style="display:none">
    <path
       id="rect907-0-3-3"
       style="display:inline;opacity:0.997;fill:#8c8cd9;fill-opacity:1;stroke:#000000;stroke-width:3.77953;stroke-linecap:round;stroke-linejoin:round;stroke-miterlimit:4;stroke-dasharray:none"
       d="M 417.69141,42.425781 V 296.83203 448.01367 l 44.2207,-25.53125 V 322.36328 l -0.002,-279.937499 z"
       transform="scale(0.26458333)" />
  </g>
  <g
     inkscape:groupmode="layer"
     id="layer3"
     inkscape:label="Step 0矢印"
     style="display:none">
    <path
       style="display:inline;fill:none;stroke:#4d4d4d;stroke-width:2;stroke-linecap:butt;stroke-linejoin:miter;stroke-miterlimit:4;stroke-dasharray:none;stroke-opacity:1;marker-end:url(#TriangleOutM-9)"
       d="m 192.54174,139.93664 c 11.73759,3.20724 13.97541,-5.90454 3.14042,-9.75534 -54.62751,-18.19058 -78.63902,-14.83608 -79.31223,-70.158217"
       id="path1344"
       sodipodi:nodetypes="czz" />
  </g>
  <g
     inkscape:groupmode="layer"
     id="layer10"
     inkscape:label="赤、根元側(3,4)"
     style="display:inline">
    <path
       id="path840-3-4-3"
       style="display:inline;fill:#d98c8c;fill-opacity:1;stroke:#000000;stroke-width:1;stroke-linecap:round;stroke-linejoin:round;stroke-miterlimit:4;stroke-dasharray:none"
       d="m 166.80274,79.499546 c -0.0268,2.34129 -3.7058,4.629978 -10.58385,6.584088 v 0.0372 l -66.379925,21.369746 3.58531,11.13731 c 6.54501,-2.2614 66.772155,-21.014456 66.534445,-21.755256 4.49955,-1.67457 6.84356,-3.52355 6.84402,-5.39864 8e-5,-0.0109 8e-5,-0.0217 0,-0.0326 z"
       sodipodi:nodetypes="ccccccccc"
       inkscape:export-xdpi="96"
       inkscape:export-ydpi="96" />
  </g>
  <g
     inkscape:groupmode="layer"
     id="layer2"
     inkscape:label="赤、初期状態(0,1,2)"
     style="display:none">
    <path
       id="path840-3-4-8"
       style="display:inline;fill:#d98c8c;fill-opacity:1;stroke:#000000;stroke-width:3.77953;stroke-linecap:round;stroke-linejoin:round;stroke-miterlimit:4;stroke-dasharray:none"
       d="m 630.43555,300.32812 c -0.10129,8.84899 -14.00618,17.49916 -40.00196,24.88477 v 0.14063 l -250.88476,80.76757 v 0.002 l -308.589846,98.71289 13.31836,42.16797 308.822266,-98.78907 c 24.73708,-8.54702 252.36718,-79.42469 251.46875,-82.22461 17.00617,-6.32908 25.86545,-13.31734 25.86719,-20.40429 3e-4,-0.0412 3e-4,-0.0819 0,-0.12305 z"
       transform="scale(0.26458333)" />
  </g>
  <g
     inkscape:groupmode="layer"
     id="layer9"
     inkscape:label="真ん中の帯(All)"
     style="display:inline">
    <path
       id="path840-3-1"
       style="display:inline;fill:#b2b2b2;fill-opacity:1;stroke:#000000;stroke-width:1;stroke-linecap:round;stroke-linejoin:round;stroke-miterlimit:4;stroke-dasharray:none"
       d="m 169.00002,81.025543 a 64.000152,11.999999 0 0 1 -63.99971,11.97447 64.000152,11.999999 0 0 1 -64.000229,-11.96775 v 11.96775 a 64.000152,11.999999 0 0 0 63.999709,11.999777 64.000152,11.999999 0 0 0 64.00023,-11.999777 64.000152,11.999999 0 0 0 0,-0.0326 z" />
  </g>
  <g
     inkscape:groupmode="layer"
     id="layer11"
     inkscape:label="赤、終・端(4)"
     style="display:inline">
    <rect
       style="display:inline;fill:#e5b3b3;fill-opacity:1;stroke:#000000;stroke-width:1;stroke-linecap:round;stroke-linejoin:round;stroke-miterlimit:4;stroke-dasharray:none"
       id="rect907"
       width="80"
       height="11.7"
       x="120.20193"
       y="21.349348"
       transform="rotate(30)" />
  </g>
  <g
     inkscape:groupmode="layer"
     id="g862"
     inkscape:label="別:真ん中の帯(All)"
     style="display:none">
    <path
       id="path860"
       style="display:inline;fill:#b2b2b2;fill-opacity:1;stroke:#000000;stroke-width:1;stroke-linecap:round;stroke-linejoin:round;stroke-miterlimit:4;stroke-dasharray:none"
       d="m 169.00002,81.025543 a 64.000152,11.999999 0 0 1 -63.99971,11.97447 64.000152,11.999999 0 0 1 -64.000229,-11.96775 v 11.96775 a 64.000152,11.999999 0 0 0 63.999709,11.999777 64.000152,11.999999 0 0 0 64.00023,-11.999777 64.000152,11.999999 0 0 0 0,-0.0326 z" />
  </g>
  <g
     inkscape:groupmode="layer"
     id="g854"
     inkscape:label="別:青、終・端(2,3,4別法)"
     style="display:none">
    <path
       id="path852"
       style="display:inline;fill:#d9d9f2;fill-opacity:1;stroke:#000000;stroke-width:1;stroke-linecap:round;stroke-linejoin:round;stroke-miterlimit:4;stroke-dasharray:none"
       d="M 110.5142,78.590046 41.23213,118.59019 47.0819,128.72238 122.21426,85.345186 Z" />
  </g>
  <g
     inkscape:groupmode="layer"
     id="layer8"
     inkscape:label="青、終・根本(1～)"
     style="display:inline">
    <path
       id="path840-3-2-9"
       style="display:inline;fill:#b3b3e5;fill-opacity:1;stroke:#000000;stroke-width:1;stroke-linecap:round;stroke-linejoin:round;stroke-miterlimit:4;stroke-dasharray:none;stroke-opacity:1"
       d="m 38.678263,82.990359 c 0.03534,4.153012 -0.07125,8.313797 0.05428,12.461871 1.324382,3.218362 5.152813,4.196828 8.107505,5.36975 12.166708,3.52674 24.237989,7.45041 36.361747,11.15847 8.403728,2.60749 16.807455,5.21499 25.211185,7.82248 4.60041,-2.656 9.20082,-5.31199 13.80123,-7.96799 C 99.864286,104.54671 71.682708,97.412309 49.380449,89.989364 44.138535,88.209913 41.671576,87.163284 39.79881,85.194424 39.206715,84.611628 38.688084,83.852947 38.678263,82.990359 Z"
       sodipodi:nodetypes="ccccccccc" />
  </g>
  <g
     inkscape:groupmode="layer"
     id="layer1"
     inkscape:label="青、初期状態(0)"
     style="display:none">
    <path
       id="rect854-7"
       style="fill:#b3b3e5;fill-opacity:1;stroke:#000000;stroke-width:3.77953;stroke-linecap:round;stroke-linejoin:round;stroke-miterlimit:4;stroke-dasharray:none"
       d="m 146.18555,313.67578 c 0.13357,15.69642 -0.26937,31.42187 0.20507,47.09961 5.00554,12.16388 19.47524,15.86378 30.64258,20.29688 180.34722,56.9977 363.08697,112.49349 544.6836,167.82226 l 12.88672,-42.30078 -273.61524,-83.36523 c -96.184,-28.89617 -182.48699,-52.8009 -274.35351,-83.09961 -19.81196,-6.72548 -29.13668,-10.68169 -36.21485,-18.12305 -2.23784,-2.20271 -4.19725,-5.0699 -4.23437,-8.33008 z"
       sodipodi:nodetypes="ccccccccc"
       transform="scale(0.26458333)" />
  </g>
  <g
     inkscape:groupmode="layer"
     id="layer15"
     inkscape:label="Step 3 矢印"
     style="display:none">
    <path
       style="display:inline;fill:none;stroke:#4d4d4d;stroke-width:2;stroke-linecap:butt;stroke-linejoin:miter;stroke-miterlimit:4;stroke-dasharray:none;stroke-opacity:1;marker-end:url(#marker2212-2)"
       d="m 87.664734,14.748333 c 0.03242,-14.18165307 15.792496,-14.45677415 16.036186,-0.26727 1.06361,82.014629 -3.06128,86.547247 50.24686,110.114887"
       id="path2148"
       sodipodi:nodetypes="ccc" />
  </g>
  <g
     inkscape:groupmode="layer"
     id="layer7"
     inkscape:label="青、終・端(2,3,4)"
     style="display:inline;filter:url(#filter1695)">
    <path
       id="rect907-0-3"
       style="display:inline;fill:#d9d9f2;fill-opacity:1;stroke:#000000;stroke-width:1;stroke-linecap:round;stroke-linejoin:round;stroke-miterlimit:4;stroke-dasharray:none"
       d="M 110.5142,78.590046 41.23213,118.59019 47.0819,128.72238 122.21426,85.345186 Z" />
  </g>
  <g
     inkscape:groupmode="layer"
     id="layer6"
     inkscape:label="赤、終・ループ(4)"
     style="display:inline">
    <path
       id="rect907-5-9"
       style="display:inline;fill:#f2d9d9;fill-opacity:1;stroke:#000000;stroke-width:1;stroke-linecap:round;stroke-linejoin:round;stroke-miterlimit:4;stroke-dasharray:none"
       d="m 93.423255,78.590046 -11.70006,6.75514 v 26.489844 l 11.70006,6.75515 z" />
  </g>
  <g
     inkscape:groupmode="layer"
     id="layer4"
     inkscape:label="赤、途中・持ち上げた端(3)"
     style="display:none">
    <path
       id="rect907-0-3-3-3"
       style="display:inline;fill:#f2d9d9;fill-opacity:1;stroke:#000000;stroke-width:3.77953;stroke-linecap:round;stroke-linejoin:round;stroke-miterlimit:4;stroke-dasharray:none"
       d="m 308.88086,42.425781 -0.002,280.140629 v 100.11914 l 44.2207,25.53125 V 297.03516 42.425781 Z"
       transform="scale(0.26458333)" />
  </g>
  <g
     inkscape:groupmode="layer"
     id="layer13"
     inkscape:label="Step 1 矢印"
     style="display:none">
    <path
       style="display:inline;fill:none;stroke:#4d4d4d;stroke-width:2;stroke-linecap:butt;stroke-linejoin:miter;stroke-miterlimit:4;stroke-dasharray:none;stroke-opacity:1;marker-end:url(#TriangleOutM-91)"
       d="M 116.02182,15.007042 C 72.638499,33.984114 57.547945,71.447625 50.864814,116.4188"
       id="path1662"
       sodipodi:nodetypes="cc" />
  </g>
  <g
     inkscape:groupmode="layer"
     id="layer14"
     inkscape:label="Step 2 矢印"
     style="display:none">
    <path
       style="display:inline;fill:none;stroke:#4d4d4d;stroke-width:2;stroke-linecap:butt;stroke-linejoin:miter;stroke-miterlimit:4;stroke-dasharray:none;stroke-opacity:1;marker-end:url(#TriangleOutM-91-5)"
       d="M 15.032082,136.63664 C 86.562278,136.94537 83.041321,92.756431 82.728147,21.193205"
       id="path1662-5"
       sodipodi:nodetypes="cc" />
  </g>
</svg>
